<?xml version="1.0" encoding="utf-8"?>
<!-- Generator: Adobe Illustrator 16.0.0, SVG Export Plug-In . SVG Version: 6.00 Build 0)  -->
<!DOCTYPE svg PUBLIC "-//W3C//DTD SVG 1.1//EN" "http://www.w3.org/Graphics/SVG/1.1/DTD/svg11.dtd">
<svg version="1.1" id="Layer_1" xmlns="http://www.w3.org/2000/svg" xmlns:xlink="http://www.w3.org/1999/xlink" x="0px" y="0px"
	 width="155.91px" height="155.91px" viewBox="0 0 155.91 155.91" enable-background="new 0 0 155.91 155.91" xml:space="preserve">
<circle fill="none" stroke="#006862" stroke-miterlimit="10" cx="77.329" cy="79.221" r="70.866"/>
<path fill="none" stroke="#006862" stroke-miterlimit="10" d="M37.341,81.003c0-13.409,10.872-24.278,24.281-24.278
	c13.411,0,24.281,10.869,24.281,24.278"/>
<path fill="none" stroke="#006862" stroke-miterlimit="10" d="M118.432,81.003c0,23.253-18.852,42.104-42.104,42.104
	c-23.251,0-42.102-18.851-42.102-42.104H118.432z"/>
<path fill="none" stroke="#006862" stroke-miterlimit="10" d="M46.476,81.003c0-8.365,6.782-15.144,15.146-15.144
	c8.366,0,15.146,6.778,15.146,15.144"/>
<path fill="none" stroke="#006862" stroke-miterlimit="10" d="M53.246,81.003c0-4.631,3.753-8.383,8.383-8.383
	c4.631,0,8.384,3.752,8.384,8.383"/>
<path fill="none" stroke="#006862" stroke-miterlimit="10" d="M84.521,73.325c2.712-4.688,7.792-7.846,13.607-7.846
	c8.663,0,15.69,7.003,15.69,15.645"/>
<path fill="none" stroke="#006862" stroke-miterlimit="10" d="M88.953,81.003c0-4.902,3.974-8.871,8.873-8.871
	c4.9,0,8.874,3.969,8.874,8.871"/>
<line fill="none" stroke="#006862" stroke-miterlimit="10" x1="118.432" y1="42.272" x2="94.922" y2="81.003"/>
<line fill="none" stroke="#006862" stroke-miterlimit="10" x1="96.283" y1="30.043" x2="93.938" y2="65.859"/>
</svg>
