<?xml version="1.0" encoding="utf-8"?>
<!-- Generator: Adobe Illustrator 16.0.0, SVG Export Plug-In . SVG Version: 6.00 Build 0)  -->
<!DOCTYPE svg PUBLIC "-//W3C//DTD SVG 1.1//EN" "http://www.w3.org/Graphics/SVG/1.1/DTD/svg11.dtd">
<svg version="1.1" id="Layer_1" xmlns="http://www.w3.org/2000/svg" xmlns:xlink="http://www.w3.org/1999/xlink" x="0px" y="0px"
	 width="155.91px" height="155.91px" viewBox="0 0 155.91 155.91" enable-background="new 0 0 155.91 155.91" xml:space="preserve">
<path fill="none" stroke="#006862" stroke-miterlimit="10" d="M43.975,64.37c1.354-1.475,2.821-2.85,4.39-4.115"/>
<path fill="none" stroke="#006862" stroke-miterlimit="10" d="M42.988,107.842l79.561-17.748l0.584-0.154
	c3.874-1.187,6.239-5.176,5.338-9.193l-0.023-0.103c-4.925-21.948-26.71-35.746-48.658-30.821
	C57.844,54.748,44.045,76.533,48.97,98.479l-0.061,0.014C49.855,102.709,47.205,106.896,42.988,107.842
	c-4.216,0.947-8.401-1.705-9.348-5.923l-0.026-0.12c-2.014-8.967-0.9-17.907,2.616-25.679"/>
<path fill="none" stroke="#006862" stroke-miterlimit="10" d="M43.531,107.827c-13.417-5.824-1.917-14.876-0.994-15.336
	c2.954-1.476-0.611-3.499-1.258-4.46c-3.844-5.707,4.309-12.368,9.115-12.295"/>
<path fill="none" stroke="#006862" stroke-miterlimit="10" d="M52.296,71.315C47.473,63.967,46.194,58.844,52,54.578
	c3.302-2.426,6.572,0.005,7.79,1.407c0.786-2.235,3.765-11.923,12.502-3.703"/>
<path fill="none" stroke="#006862" stroke-miterlimit="10" d="M122.596,66.953c2.403-4.789-1.084-17.216-12.203-13.948
	c-1.352-5.17-5.203-7.837-7.748-8.697c-1.883-0.636-7.022-2.018-11.602,4.583"/>
<g>
	<g>
		<path fill="#006862" d="M58.709,81.697c1.612,0,1.612-2.5,0-2.5S57.097,81.697,58.709,81.697L58.709,81.697z"/>
	</g>
</g>
<g>
	<g>
		<path fill="#006862" d="M70.182,65.082c1.612,0,1.612-2.5,0-2.5S68.569,65.082,70.182,65.082L70.182,65.082z"/>
	</g>
</g>
<g>
	<g>
		<path fill="#006862" d="M78.933,77.675c1.612,0,1.612-2.5,0-2.5C77.321,75.175,77.321,77.675,78.933,77.675L78.933,77.675z"/>
	</g>
</g>
<g>
	<g>
		<path fill="#006862" d="M69.766,94.805c1.612,0,1.612-2.5,0-2.5S68.154,94.805,69.766,94.805L69.766,94.805z"/>
	</g>
</g>
<g>
	<g>
		<path fill="#006862" d="M93.745,86.848c1.612,0,1.612-2.5,0-2.5S92.133,86.848,93.745,86.848L93.745,86.848z"/>
	</g>
</g>
<g>
	<g>
		<path fill="#006862" d="M97.071,60.335c1.612,0,1.612-2.5,0-2.5S95.459,60.335,97.071,60.335L97.071,60.335z"/>
	</g>
</g>
<g>
	<g>
		<path fill="#006862" d="M106.164,72.724c1.612,0,1.612-2.5,0-2.5S104.552,72.724,106.164,72.724L106.164,72.724z"/>
	</g>
</g>
<g>
	<g>
		<path fill="#006862" d="M116.736,81.946c1.612,0,1.612-2.5,0-2.5S115.124,81.946,116.736,81.946L116.736,81.946z"/>
	</g>
</g>
<path fill="none" stroke="#006862" stroke-miterlimit="10" d="M50.438,68.263c-3.079-1.823-9.032-5.193-9.873-5.516
	c-1.039-0.397-5.973,12.227-6.075,12.829c3.495,1.221,7.846,3.112,8.646,3.582"/>
<path fill="none" stroke="#006862" stroke-miterlimit="10" d="M92.692,46.782c-2.48-1.465-7.049-4.995-7.726-5.255
	c-0.523-0.198-2.873,5.009-4.13,8.075"/>
<path fill="none" stroke="#006862" stroke-miterlimit="10" d="M81.232,48.542c-2.168-1.279-6.161-4.366-6.753-4.593
	c-0.457-0.174-2.509,4.376-3.609,7.058"/>
<circle fill="none" stroke="#006862" stroke-miterlimit="10" cx="78.396" cy="78.124" r="70.866"/>
</svg>
