<?xml version="1.0" encoding="utf-8"?>
<!-- Generator: Adobe Illustrator 16.0.0, SVG Export Plug-In . SVG Version: 6.00 Build 0)  -->
<!DOCTYPE svg PUBLIC "-//W3C//DTD SVG 1.1//EN" "http://www.w3.org/Graphics/SVG/1.1/DTD/svg11.dtd">
<svg version="1.1" id="Layer_1" xmlns="http://www.w3.org/2000/svg" xmlns:xlink="http://www.w3.org/1999/xlink" x="0px" y="0px"
	 width="155.91px" height="155.91px" viewBox="0 0 155.91 155.91" enable-background="new 0 0 155.91 155.91" xml:space="preserve">
<path fill="none" stroke="#006862" stroke-miterlimit="10" d="M104.748,81.115c8.585,3.65,14.002,8.993,14.002,14.948
	c0,10.997-18.489,19.916-41.301,19.916c-22.815,0-41.305-8.919-41.305-19.916c0-5.892,5.304-11.188,13.74-14.835"/>
<path fill="none" stroke="#006862" stroke-miterlimit="10" d="M85.975,48.75c6.505,1.428,10.988,4.444,10.988,7.935
	c0,4.87-8.736,8.818-19.516,8.818c-10.78,0-19.516-3.948-19.516-8.818c0-3.494,4.489-6.51,11.006-7.938"/>
<path fill="none" stroke="#006862" stroke-miterlimit="10" d="M57.932,56.685l-10.745,32.09c0,9.38,13.548,16.982,30.261,16.982
	s30.261-7.603,30.261-16.982l-10.745-32.09"/>
<circle fill="none" stroke="#006862" stroke-miterlimit="10" cx="77.378" cy="48.358" r="8.605"/>
<path fill="none" stroke="#006862" stroke-miterlimit="10" d="M84.606,31.813c-3.58,0-7.159,1.47-7.159,8.629"/>
<circle fill="none" stroke="#006862" stroke-miterlimit="10" cx="77.463" cy="78.856" r="70.866"/>
</svg>
