<?xml version="1.0" encoding="utf-8"?>
<!-- Generator: Adobe Illustrator 16.0.0, SVG Export Plug-In . SVG Version: 6.00 Build 0)  -->
<!DOCTYPE svg PUBLIC "-//W3C//DTD SVG 1.1//EN" "http://www.w3.org/Graphics/SVG/1.1/DTD/svg11.dtd">
<svg version="1.1" id="Layer_1" xmlns="http://www.w3.org/2000/svg" xmlns:xlink="http://www.w3.org/1999/xlink" x="0px" y="0px"
	 width="155.91px" height="155.91px" viewBox="0 0 155.91 155.91" enable-background="new 0 0 155.91 155.91" xml:space="preserve">
<circle fill="none" stroke="#006862" stroke-miterlimit="10" cx="77.563" cy="78.47" r="70.866"/>
<path fill="none" stroke="#006862" stroke-miterlimit="10" d="M110.792,84.487c3.388,5.552,5.479,11.981,5.853,18.869"/>
<path fill="none" stroke="#006862" stroke-miterlimit="10" d="M35.744,103.077c1.291-21.216,18.902-38.021,40.441-38.021
	c3.295,0,6.498,0.393,9.566,1.136"/>
<polygon fill="none" stroke="#006862" stroke-linejoin="round" stroke-miterlimit="10" points="111.595,111.852 127.329,103.356 
	24.793,103.356 40.873,111.852 "/>
<path fill="none" stroke="#006862" stroke-miterlimit="10" d="M81.523,72.746c1.231-2.273,2.777-4.524,4.628-6.662
	c8.836-10.225,21.207-14.009,27.638-8.453c6.427,5.558,4.479,18.347-4.356,28.57c-2.415,2.795-5.097,5.109-7.847,6.883"/>
<path fill="none" stroke="#006862" stroke-miterlimit="10" d="M67.451,66c6.812-7.248,17.932-14.271,27.277-8.174
	c0.26,0.171,0.46,0.416,0.672,0.64"/>
<g>
	<g>
		<path fill="#006862" d="M42.597,97.907c1.612,0,1.612-2.5,0-2.5S40.984,97.907,42.597,97.907L42.597,97.907z"/>
	</g>
</g>
<g>
	<g>
		<path fill="#006862" d="M53.504,87.28c1.612,0,1.612-2.5,0-2.5S51.892,87.28,53.504,87.28L53.504,87.28z"/>
	</g>
</g>
<g>
	<g>
		<path fill="#006862" d="M46.233,85.315c1.612,0,1.612-2.5,0-2.5S44.621,85.315,46.233,85.315L46.233,85.315z"/>
	</g>
</g>
<g>
	<g>
		<path fill="#006862" d="M51.466,79.837c1.612,0,1.612-2.5,0-2.5S49.854,79.837,51.466,79.837L51.466,79.837z"/>
	</g>
</g>
<g>
	<g>
		<path fill="#006862" d="M60.028,76.747c1.612,0,1.612-2.5,0-2.5S58.416,76.747,60.028,76.747L60.028,76.747z"/>
	</g>
</g>
<g>
	<g>
		<path fill="#006862" d="M68.231,70.781c1.612,0,1.612-2.5,0-2.5S66.619,70.781,68.231,70.781L68.231,70.781z"/>
	</g>
</g>
<g>
	<g>
		<path fill="#006862" d="M85.011,60.716c1.612,0,1.612-2.5,0-2.5S83.398,60.716,85.011,60.716L85.011,60.716z"/>
	</g>
</g>
<g>
	<g>
		<path fill="#006862" d="M90.779,68.521c1.612,0,1.612-2.5,0-2.5S89.167,68.521,90.779,68.521L90.779,68.521z"/>
	</g>
</g>
<g>
	<g>
		<path fill="#006862" d="M99.55,67.25c1.612,0,1.612-2.5,0-2.5S97.938,67.25,99.55,67.25L99.55,67.25z"/>
	</g>
</g>
<g>
	<g>
		<path fill="#006862" d="M103.932,60.716c1.612,0,1.612-2.5,0-2.5S102.319,60.716,103.932,60.716L103.932,60.716z"/>
	</g>
</g>
<path fill="none" stroke="#006862" stroke-linejoin="round" stroke-miterlimit="10" d="M92.965,56.451
	c2.252-1.997,4.908-4.566,5.562-5.212c0.947-0.941,1.442-1.437,2.12-2.446c0.676-1.01,0.924-2.252,0.778-2.994
	c-1.385-7.052,9.546-5.514,5.99,0.641c3.728-2.2,7.576,4.445,1.925,6.158c-1.025,0.311-2.551-0.525-4.01,0.405
	c-1.019,0.649-2.995,2.385-3.055,2.558"/>
<path fill="none" stroke="#006862" stroke-linejoin="round" stroke-miterlimit="10" d="M111.908,56.354
	c2.253-1.995,4.334-4.05,4.986-4.696c0.947-0.94,1.444-1.437,2.122-2.447c0.674-1.01,0.921-2.251,0.776-2.993
	c-1.384-7.052,9.545-5.513,5.99,0.64c3.728-2.198,7.577,4.446,1.925,6.159c-1.025,0.311-2.55-0.525-4.008,0.403
	c-1.021,0.65-7.434,7.158-7.495,7.331"/>
</svg>
