<?xml version="1.0" encoding="utf-8"?>
<!-- Generator: Adobe Illustrator 16.0.0, SVG Export Plug-In . SVG Version: 6.00 Build 0)  -->
<!DOCTYPE svg PUBLIC "-//W3C//DTD SVG 1.1//EN" "http://www.w3.org/Graphics/SVG/1.1/DTD/svg11.dtd">
<svg version="1.1" id="Layer_1" xmlns="http://www.w3.org/2000/svg" xmlns:xlink="http://www.w3.org/1999/xlink" x="0px" y="0px"
	 width="155.91px" height="155.91px" viewBox="0 0 155.91 155.91" enable-background="new 0 0 155.91 155.91" xml:space="preserve">
<circle fill="none" stroke="#006862" stroke-miterlimit="10" cx="77.866" cy="78.62" r="70.866"/>
<path fill="none" stroke="#006862" stroke-miterlimit="10" d="M91.096,89.795c2.974-2.456,4.868-6.171,4.868-10.328
	c0-7.393-5.99-13.385-13.383-13.385c-4.166,0-7.887,1.902-10.341,4.886l-0.143,0.292l-30.834,40.161l-0.184,0.305
	c-0.521,0.971-0.818,2.08-0.818,3.259c0,3.805,3.085,6.89,6.89,6.89c1.188,0,2.303-0.3,3.278-0.829"/>
<line fill="none" stroke="#006862" stroke-miterlimit="10" x1="91.096" y1="89.795" x2="50.429" y2="121.045"/>
<line fill="none" stroke="#006862" stroke-miterlimit="10" x1="97.519" y1="57.715" x2="90.979" y2="71.138"/>
<line fill="none" stroke="#006862" stroke-miterlimit="10" x1="105.222" y1="57.175" x2="90.979" y2="71.138"/>
<line fill="none" stroke="#006862" stroke-miterlimit="10" x1="104.416" y1="64.829" x2="90.979" y2="71.138"/>
<line fill="none" stroke="#006862" stroke-miterlimit="10" x1="78.976" y1="79.14" x2="71.383" y2="72.188"/>
<line fill="none" stroke="#006862" stroke-miterlimit="10" x1="79.575" y1="98.646" x2="72.522" y2="91.789"/>
<line fill="none" stroke="#006862" stroke-miterlimit="10" x1="52.688" y1="96.538" x2="57.42" y2="101.211"/>
<path fill="none" stroke="#006862" stroke-miterlimit="10" d="M105.222,57.175c-0.771,1.435-1.207,3.074-1.207,4.816
	c0,5.631,4.565,10.196,10.196,10.196c5.633,0,10.197-4.565,10.197-10.196c0-3.07-1.356-5.823-3.502-7.69l-0.092-0.22
	c0.283-0.937,0.601-2.218,0.601-3.247c0-5.631-4.566-10.198-10.197-10.198c-1.189,0-2.331,0.205-3.393,0.579l-0.131-0.152
	c-1.868-2.098-4.587-3.416-7.615-3.416c-5.632,0-10.198,4.565-10.198,10.197c0,5.631,4.566,10.196,10.198,10.196
	C101.983,58.04,103.696,58.084,105.222,57.175L105.222,57.175z"/>
</svg>
